<svg width="24" height="24" viewBox="0 0 24 24" fill="none" xmlns="http://www.w3.org/2000/svg">
<path d="M5.97825 3.21246H12.9158C13.6517 3.21246 14.3576 3.50483 14.878 4.02524C15.3984 4.54566 15.6908 5.25149 15.6908 5.98746V20.7875H3.20325V5.98746C3.20325 5.25149 3.49562 4.54566 4.01603 4.02524C4.53644 3.50483 5.24227 3.21246 5.97825 3.21246Z" stroke="#1971C2" stroke-width="1.5" stroke-linecap="round" stroke-linejoin="round"/>
<path d="M2.75 20.7875H21.25" stroke="#1971C2" stroke-width="1.5" stroke-linecap="round" stroke-linejoin="round"/>
<path d="M8.53125 14.3125H10.3812C10.7492 14.3125 11.1022 14.4587 11.3624 14.7189C11.6226 14.9791 11.7687 15.332 11.7687 15.7V20.7875H7.14375V15.7C7.14375 15.332 7.28993 14.9791 7.55014 14.7189C7.81035 14.4587 8.16326 14.3125 8.53125 14.3125Z" stroke="#1971C2" stroke-width="1.5" stroke-linecap="round" stroke-linejoin="round"/>
<path d="M6.672 6.91254H12.222" stroke="#1971C2" stroke-width="1.5" stroke-linecap="round" stroke-linejoin="round"/>
<path d="M6.672 10.6125H12.222" stroke="#1971C2" stroke-width="1.5" stroke-linecap="round" stroke-linejoin="round"/>
<path d="M15.6908 9.22504H17.5408C18.2767 9.22504 18.9826 9.5174 19.503 10.0378C20.0234 10.5582 20.3158 11.264 20.3158 12V20.7875" stroke="#1971C2" stroke-width="1.5" stroke-linecap="round" stroke-linejoin="round"/>
</svg>
