<svg width="230" height="19" viewBox="0 0 230 19" fill="none" xmlns="http://www.w3.org/2000/svg">
<path d="M8.144 18.288C6.496 18.288 5.072 17.928 3.872 17.208C2.688 16.472 1.768 15.456 1.112 14.16C0.456 12.848 0.128 11.328 0.128 9.6C0.128 7.888 0.456 6.384 1.112 5.088C1.768 3.776 2.688 2.752 3.872 2.016C5.072 1.28 6.496 0.912 8.144 0.912C10.064 0.912 11.624 1.376 12.824 2.304C14.04 3.216 14.816 4.496 15.152 6.144H12.92C12.664 5.104 12.136 4.272 11.336 3.648C10.552 3.008 9.488 2.688 8.144 2.688C6.944 2.688 5.896 2.968 5 3.528C4.104 4.072 3.408 4.864 2.912 5.904C2.432 6.928 2.192 8.16 2.192 9.6C2.192 11.04 2.432 12.28 2.912 13.32C3.408 14.344 4.104 15.136 5 15.696C5.896 16.24 6.944 16.512 8.144 16.512C9.488 16.512 10.552 16.208 11.336 15.6C12.136 14.976 12.664 14.152 12.92 13.128H15.152C14.816 14.744 14.04 16.008 12.824 16.92C11.624 17.832 10.064 18.288 8.144 18.288ZM18.6254 18.12C18.2254 18.12 17.8894 17.992 17.6174 17.736C17.3614 17.464 17.2334 17.136 17.2334 16.752C17.2334 16.368 17.3614 16.048 17.6174 15.792C17.8894 15.52 18.2254 15.384 18.6254 15.384C19.0094 15.384 19.3294 15.52 19.5854 15.792C19.8574 16.048 19.9934 16.368 19.9934 16.752C19.9934 17.136 19.8574 17.464 19.5854 17.736C19.3294 17.992 19.0094 18.12 18.6254 18.12ZM22.7369 18V1.2H33.1289V2.856H24.7529V8.712H32.4089V10.344H24.7529V16.344H33.1289V18H22.7369ZM36.8598 18.12C36.4598 18.12 36.1238 17.992 35.8518 17.736C35.5958 17.464 35.4678 17.136 35.4678 16.752C35.4678 16.368 35.5958 16.048 35.8518 15.792C36.1238 15.52 36.4598 15.384 36.8598 15.384C37.2438 15.384 37.5638 15.52 37.8198 15.792C38.0918 16.048 38.2278 16.368 38.2278 16.752C38.2278 17.136 38.0918 17.464 37.8198 17.736C37.5638 17.992 37.2438 18.12 36.8598 18.12ZM52.3869 18L46.0749 1.2H48.2589L53.5629 15.864L58.9149 1.2H61.0509L54.7389 18H52.3869ZM64.4581 3.456C64.0581 3.456 63.7221 3.328 63.4501 3.072C63.1941 2.8 63.0661 2.464 63.0661 2.064C63.0661 1.68 63.1941 1.36 63.4501 1.104C63.7221 0.847999 64.0581 0.719999 64.4581 0.719999C64.8421 0.719999 65.1701 0.847999 65.4421 1.104C65.7141 1.36 65.8501 1.68 65.8501 2.064C65.8501 2.464 65.7141 2.8 65.4421 3.072C65.1701 3.328 64.8421 3.456 64.4581 3.456ZM63.4501 18V6.096H65.4661V18H63.4501ZM74.4483 18.288C73.3123 18.288 72.2883 18.032 71.3763 17.52C70.4803 16.992 69.7683 16.264 69.2403 15.336C68.7283 14.392 68.4723 13.296 68.4723 12.048C68.4723 10.8 68.7283 9.712 69.2403 8.784C69.7683 7.84 70.4803 7.112 71.3763 6.6C72.2883 6.072 73.3123 5.808 74.4483 5.808C75.8563 5.808 77.0403 6.176 78.0003 6.912C78.9763 7.648 79.5923 8.632 79.8483 9.864H77.7843C77.6243 9.128 77.2323 8.56 76.6083 8.16C75.9843 7.744 75.2563 7.536 74.4243 7.536C73.7523 7.536 73.1203 7.704 72.5283 8.04C71.9363 8.376 71.4563 8.88 71.0883 9.552C70.7203 10.224 70.5363 11.056 70.5363 12.048C70.5363 13.04 70.7203 13.872 71.0883 14.544C71.4563 15.216 71.9363 15.728 72.5283 16.08C73.1203 16.416 73.7523 16.584 74.4243 16.584C75.2563 16.584 75.9843 16.384 76.6083 15.984C77.2323 15.568 77.6243 14.984 77.7843 14.232H79.8483C79.6083 15.432 79.0003 16.408 78.0243 17.16C77.0483 17.912 75.8563 18.288 74.4483 18.288ZM88.0158 18.288C86.8798 18.288 85.8718 18.032 84.9918 17.52C84.1118 16.992 83.4158 16.264 82.9038 15.336C82.4078 14.408 82.1598 13.312 82.1598 12.048C82.1598 10.8 82.4078 9.712 82.9038 8.784C83.3998 7.84 84.0878 7.112 84.9678 6.6C85.8638 6.072 86.8958 5.808 88.0638 5.808C89.2158 5.808 90.2078 6.072 91.0398 6.6C91.8878 7.112 92.5358 7.792 92.9838 8.64C93.4318 9.488 93.6558 10.4 93.6558 11.376C93.6558 11.552 93.6478 11.728 93.6318 11.904C93.6318 12.08 93.6318 12.28 93.6318 12.504H84.1518C84.1998 13.416 84.4078 14.176 84.7758 14.784C85.1598 15.376 85.6318 15.824 86.1918 16.128C86.7678 16.432 87.3758 16.584 88.0158 16.584C88.8478 16.584 89.5438 16.392 90.1038 16.008C90.6638 15.624 91.0718 15.104 91.3278 14.448H93.3198C92.9998 15.552 92.3838 16.472 91.4718 17.208C90.5758 17.928 89.4238 18.288 88.0158 18.288ZM88.0158 7.512C87.0558 7.512 86.1998 7.808 85.4478 8.4C84.7118 8.976 84.2878 9.824 84.1758 10.944H91.6638C91.6158 9.872 91.2478 9.032 90.5598 8.424C89.8718 7.816 89.0238 7.512 88.0158 7.512ZM96.3279 18V6.096H98.1519L98.2719 8.232C98.6559 7.48 99.2079 6.888 99.9279 6.456C100.648 6.024 101.464 5.808 102.376 5.808C103.784 5.808 104.904 6.24 105.736 7.104C106.584 7.952 107.008 9.264 107.008 11.04V18H104.992V11.256C104.992 8.776 103.968 7.536 101.92 7.536C100.896 7.536 100.04 7.912 99.3519 8.664C98.6799 9.4 98.3439 10.456 98.3439 11.832V18H96.3279ZM114.766 18C113.678 18 112.822 17.736 112.198 17.208C111.574 16.68 111.262 15.728 111.262 14.352V7.8H109.198V6.096H111.262L111.526 3.24H113.278V6.096H116.782V7.8H113.278V14.352C113.278 15.104 113.43 15.616 113.734 15.888C114.038 16.144 114.574 16.272 115.342 16.272H116.59V18H114.766ZM124.367 18.288C123.231 18.288 122.223 18.032 121.343 17.52C120.463 16.992 119.767 16.264 119.255 15.336C118.759 14.408 118.511 13.312 118.511 12.048C118.511 10.8 118.759 9.712 119.255 8.784C119.751 7.84 120.439 7.112 121.319 6.6C122.215 6.072 123.247 5.808 124.415 5.808C125.567 5.808 126.559 6.072 127.391 6.6C128.239 7.112 128.887 7.792 129.335 8.64C129.783 9.488 130.007 10.4 130.007 11.376C130.007 11.552 129.999 11.728 129.983 11.904C129.983 12.08 129.983 12.28 129.983 12.504H120.503C120.551 13.416 120.759 14.176 121.127 14.784C121.511 15.376 121.983 15.824 122.543 16.128C123.119 16.432 123.727 16.584 124.367 16.584C125.199 16.584 125.895 16.392 126.455 16.008C127.015 15.624 127.423 15.104 127.679 14.448H129.671C129.351 15.552 128.735 16.472 127.823 17.208C126.927 17.928 125.775 18.288 124.367 18.288ZM124.367 7.512C123.407 7.512 122.551 7.808 121.799 8.4C121.063 8.976 120.639 9.824 120.527 10.944H128.015C127.967 9.872 127.599 9.032 126.911 8.424C126.223 7.816 125.375 7.512 124.367 7.512ZM137.047 18.288C135.415 18.288 134.103 17.832 133.111 16.92C132.135 15.992 131.647 14.68 131.647 12.984H134.719C134.735 13.768 134.919 14.392 135.271 14.856C135.623 15.32 136.191 15.552 136.975 15.552C137.711 15.552 138.247 15.336 138.583 14.904C138.919 14.456 139.087 13.872 139.087 13.152V1.2H142.159V13.152C142.159 14.8 141.695 16.072 140.767 16.968C139.855 17.848 138.615 18.288 137.047 18.288ZM149.461 18.288C148.437 18.288 147.597 18.128 146.941 17.808C146.285 17.472 145.797 17.032 145.477 16.488C145.157 15.944 144.997 15.344 144.997 14.688C144.997 13.584 145.429 12.688 146.293 12C147.157 11.312 148.453 10.968 150.181 10.968H153.205V10.68C153.205 9.864 152.973 9.264 152.509 8.88C152.045 8.496 151.469 8.304 150.781 8.304C150.157 8.304 149.613 8.456 149.149 8.76C148.685 9.048 148.397 9.48 148.285 10.056H145.285C145.365 9.192 145.653 8.44 146.149 7.8C146.661 7.16 147.317 6.672 148.117 6.336C148.917 5.984 149.813 5.808 150.805 5.808C152.501 5.808 153.837 6.232 154.813 7.08C155.789 7.928 156.277 9.128 156.277 10.68V18H153.661L153.373 16.08C153.021 16.72 152.525 17.248 151.885 17.664C151.261 18.08 150.453 18.288 149.461 18.288ZM150.157 15.888C151.037 15.888 151.717 15.6 152.197 15.024C152.693 14.448 153.005 13.736 153.133 12.888H150.517C149.701 12.888 149.117 13.04 148.765 13.344C148.413 13.632 148.237 13.992 148.237 14.424C148.237 14.888 148.413 15.248 148.765 15.504C149.117 15.76 149.581 15.888 150.157 15.888ZM159.208 18V6.096H161.92L162.16 8.112C162.528 7.408 163.056 6.848 163.744 6.432C164.448 6.016 165.272 5.808 166.216 5.808C167.688 5.808 168.832 6.272 169.648 7.2C170.464 8.128 170.872 9.488 170.872 11.28V18H167.8V11.568C167.8 10.544 167.592 9.76 167.176 9.216C166.76 8.672 166.112 8.4 165.232 8.4C164.368 8.4 163.656 8.704 163.096 9.312C162.552 9.92 162.28 10.768 162.28 11.856V18H159.208ZM173.81 18V6.096H176.522L176.762 8.112C177.13 7.408 177.658 6.848 178.346 6.432C179.05 6.016 179.874 5.808 180.818 5.808C182.29 5.808 183.434 6.272 184.25 7.2C185.066 8.128 185.474 9.488 185.474 11.28V18H182.402V11.568C182.402 10.544 182.194 9.76 181.778 9.216C181.362 8.672 180.714 8.4 179.834 8.4C178.97 8.4 178.258 8.704 177.698 9.312C177.154 9.92 176.882 10.768 176.882 11.856V18H173.81ZM192.876 18.288C191.388 18.288 190.236 17.824 189.42 16.896C188.62 15.968 188.22 14.608 188.22 12.816V6.096H191.268V12.528C191.268 13.552 191.476 14.336 191.892 14.88C192.308 15.424 192.964 15.696 193.86 15.696C194.708 15.696 195.404 15.392 195.948 14.784C196.508 14.176 196.788 13.328 196.788 12.24V6.096H199.86V18H197.148L196.908 15.984C196.54 16.688 196.004 17.248 195.3 17.664C194.612 18.08 193.804 18.288 192.876 18.288ZM202.245 18V15.528L208.317 8.64H202.317V6.096H211.821V8.568L205.653 15.456H211.941V18H202.245ZM213.729 18V15.528L219.802 8.64H213.802V6.096H223.306V8.568L217.138 15.456H223.426V18H213.729ZM227.638 4.248C227.078 4.248 226.614 4.08 226.246 3.744C225.894 3.408 225.718 2.984 225.718 2.472C225.718 1.96 225.894 1.544 226.246 1.224C226.614 0.887999 227.078 0.719999 227.638 0.719999C228.198 0.719999 228.654 0.887999 229.006 1.224C229.374 1.544 229.558 1.96 229.558 2.472C229.558 2.984 229.374 3.408 229.006 3.744C228.654 4.08 228.198 4.248 227.638 4.248ZM226.102 18V6.096H229.174V18H226.102Z" fill="#1971C2"/>
</svg>
