<svg width="162" height="19" viewBox="0 0 162 19" fill="none" xmlns="http://www.w3.org/2000/svg">
<path d="M0.776 18V1.2H11.168V2.856H2.792V8.712H10.448V10.344H2.792V16.344H11.168V18H0.776ZM14.2029 18V6.096H16.0269L16.1469 8.232C16.5309 7.48 17.0829 6.888 17.8029 6.456C18.5229 6.024 19.3389 5.808 20.2509 5.808C21.6589 5.808 22.7789 6.24 23.6109 7.104C24.4589 7.952 24.8829 9.264 24.8829 11.04V18H22.8669V11.256C22.8669 8.776 21.8429 7.536 19.7949 7.536C18.7709 7.536 17.9149 7.912 17.2269 8.664C16.5549 9.4 16.2189 10.456 16.2189 11.832V18H14.2029ZM32.4973 18.288C31.0733 18.288 29.8893 17.928 28.9453 17.208C28.0013 16.488 27.4493 15.512 27.2893 14.28H29.3533C29.4813 14.904 29.8093 15.448 30.3373 15.912C30.8813 16.36 31.6093 16.584 32.5213 16.584C33.3693 16.584 33.9933 16.408 34.3933 16.056C34.7933 15.688 34.9933 15.256 34.9933 14.76C34.9933 14.04 34.7293 13.56 34.2013 13.32C33.6893 13.08 32.9613 12.864 32.0173 12.672C31.3773 12.544 30.7373 12.36 30.0973 12.12C29.4573 11.88 28.9213 11.544 28.4893 11.112C28.0573 10.664 27.8413 10.08 27.8413 9.36C27.8413 8.32 28.2253 7.472 28.9933 6.816C29.7773 6.144 30.8333 5.808 32.1613 5.808C33.4253 5.808 34.4573 6.128 35.2573 6.768C36.0733 7.392 36.5453 8.288 36.6733 9.456H34.6813C34.6013 8.848 34.3373 8.376 33.8893 8.04C33.4573 7.688 32.8733 7.512 32.1373 7.512C31.4173 7.512 30.8573 7.664 30.4573 7.968C30.0733 8.272 29.8813 8.672 29.8813 9.168C29.8813 9.648 30.1293 10.024 30.6253 10.296C31.1373 10.568 31.8253 10.8 32.6893 10.992C33.4253 11.152 34.1213 11.352 34.7773 11.592C35.4493 11.816 35.9933 12.16 36.4093 12.624C36.8413 13.072 37.0573 13.728 37.0573 14.592C37.0733 15.664 36.6653 16.552 35.8333 17.256C35.0173 17.944 33.9053 18.288 32.4973 18.288ZM41.1613 3.456C40.7613 3.456 40.4253 3.328 40.1533 3.072C39.8973 2.8 39.7693 2.464 39.7693 2.064C39.7693 1.68 39.8973 1.36 40.1533 1.104C40.4253 0.847999 40.7613 0.719999 41.1613 0.719999C41.5453 0.719999 41.8733 0.847999 42.1453 1.104C42.4173 1.36 42.5533 1.68 42.5533 2.064C42.5533 2.464 42.4173 2.8 42.1453 3.072C41.8733 3.328 41.5453 3.456 41.1613 3.456ZM40.1533 18V6.096H42.1693V18H40.1533ZM45.6794 18V6.096H47.5034L47.6234 8.232C48.0074 7.48 48.5594 6.888 49.2794 6.456C49.9994 6.024 50.8154 5.808 51.7274 5.808C53.1354 5.808 54.2554 6.24 55.0874 7.104C55.9354 7.952 56.3594 9.264 56.3594 11.04V18H54.3434V11.256C54.3434 8.776 53.3194 7.536 51.2714 7.536C50.2474 7.536 49.3914 7.912 48.7034 8.664C48.0314 9.4 47.6954 10.456 47.6954 11.832V18H45.6794ZM64.8378 18.288C63.7178 18.288 62.7098 18.032 61.8138 17.52C60.9178 17.008 60.2058 16.288 59.6778 15.36C59.1658 14.416 58.9098 13.312 58.9098 12.048C58.9098 10.784 59.1738 9.688 59.7018 8.76C60.2298 7.816 60.9418 7.088 61.8378 6.576C62.7498 6.064 63.7658 5.808 64.8858 5.808C66.0058 5.808 67.0138 6.064 67.9098 6.576C68.8058 7.088 69.5098 7.816 70.0218 8.76C70.5498 9.688 70.8138 10.784 70.8138 12.048C70.8138 13.312 70.5498 14.416 70.0218 15.36C69.4938 16.288 68.7738 17.008 67.8618 17.52C66.9658 18.032 65.9578 18.288 64.8378 18.288ZM64.8378 16.56C65.5258 16.56 66.1658 16.392 66.7578 16.056C67.3498 15.72 67.8298 15.216 68.1978 14.544C68.5658 13.872 68.7498 13.04 68.7498 12.048C68.7498 11.056 68.5658 10.224 68.1978 9.552C67.8458 8.88 67.3738 8.376 66.7818 8.04C66.1898 7.704 65.5578 7.536 64.8858 7.536C64.1978 7.536 63.5578 7.704 62.9658 8.04C62.3738 8.376 61.8938 8.88 61.5258 9.552C61.1578 10.224 60.9738 11.056 60.9738 12.048C60.9738 13.04 61.1578 13.872 61.5258 14.544C61.8938 15.216 62.3658 15.72 62.9418 16.056C63.5338 16.392 64.1658 16.56 64.8378 16.56ZM77.5049 18V3.672H72.6089V1.2H85.4969V3.672H80.5769V18H77.5049ZM91.3284 18.288C90.1284 18.288 89.0644 18.032 88.1364 17.52C87.2084 17.008 86.4804 16.288 85.9524 15.36C85.4244 14.432 85.1604 13.36 85.1604 12.144C85.1604 10.912 85.4164 9.816 85.9284 8.856C86.4564 7.896 87.1764 7.152 88.0884 6.624C89.0164 6.08 90.1044 5.808 91.3524 5.808C92.5204 5.808 93.5524 6.064 94.4484 6.576C95.3444 7.088 96.0404 7.792 96.5364 8.688C97.0484 9.568 97.3044 10.552 97.3044 11.64C97.3044 11.816 97.2964 12 97.2804 12.192C97.2804 12.384 97.2724 12.584 97.2564 12.792H88.2084C88.2724 13.72 88.5924 14.448 89.1684 14.976C89.7604 15.504 90.4724 15.768 91.3044 15.768C91.9284 15.768 92.4484 15.632 92.8644 15.36C93.2964 15.072 93.6164 14.704 93.8244 14.256H96.9444C96.7204 15.008 96.3444 15.696 95.8164 16.32C95.3044 16.928 94.6644 17.408 93.8964 17.76C93.1444 18.112 92.2884 18.288 91.3284 18.288ZM91.3524 8.304C90.6004 8.304 89.9364 8.52 89.3604 8.952C88.7844 9.368 88.4164 10.008 88.2564 10.872H94.1844C94.1364 10.088 93.8484 9.464 93.3204 9C92.7924 8.536 92.1364 8.304 91.3524 8.304ZM90.4884 5.136V2.976L95.9124 0.0479994V2.544L90.4884 5.136ZM105.72 18.288C104.504 18.288 103.432 18.024 102.504 17.496C101.576 16.968 100.84 16.232 100.296 15.288C99.7681 14.344 99.5041 13.264 99.5041 12.048C99.5041 10.832 99.7681 9.752 100.296 8.808C100.84 7.864 101.576 7.128 102.504 6.6C103.432 6.072 104.504 5.808 105.72 5.808C107.24 5.808 108.52 6.208 109.56 7.008C110.6 7.792 111.264 8.88 111.552 10.272H108.312C108.152 9.696 107.832 9.248 107.352 8.928C106.888 8.592 106.336 8.424 105.696 8.424C104.848 8.424 104.128 8.744 103.536 9.384C102.944 10.024 102.648 10.912 102.648 12.048C102.648 13.184 102.944 14.072 103.536 14.712C104.128 15.352 104.848 15.672 105.696 15.672C106.336 15.672 106.888 15.512 107.352 15.192C107.832 14.872 108.152 14.416 108.312 13.824H111.552C111.264 15.168 110.6 16.248 109.56 17.064C108.52 17.88 107.24 18.288 105.72 18.288ZM114.279 18V6.096H116.991L117.231 8.112C117.599 7.408 118.127 6.848 118.815 6.432C119.519 6.016 120.343 5.808 121.287 5.808C122.759 5.808 123.903 6.272 124.719 7.2C125.535 8.128 125.943 9.488 125.943 11.28V18H122.871V11.568C122.871 10.544 122.663 9.76 122.247 9.216C121.831 8.672 121.183 8.4 120.303 8.4C119.439 8.4 118.727 8.704 118.167 9.312C117.623 9.92 117.351 10.768 117.351 11.856V18H114.279ZM130.536 4.248C129.976 4.248 129.512 4.08 129.144 3.744C128.792 3.408 128.616 2.984 128.616 2.472C128.616 1.96 128.792 1.544 129.144 1.224C129.512 0.887999 129.976 0.719999 130.536 0.719999C131.096 0.719999 131.552 0.887999 131.904 1.224C132.272 1.544 132.456 1.96 132.456 2.472C132.456 2.984 132.272 3.408 131.904 3.744C131.552 4.08 131.096 4.248 130.536 4.248ZM129 18V6.096H132.072V18H129ZM141.111 18.288C139.895 18.288 138.823 18.024 137.895 17.496C136.967 16.968 136.231 16.232 135.687 15.288C135.159 14.344 134.895 13.264 134.895 12.048C134.895 10.832 135.159 9.752 135.687 8.808C136.231 7.864 136.967 7.128 137.895 6.6C138.823 6.072 139.895 5.808 141.111 5.808C142.631 5.808 143.911 6.208 144.951 7.008C145.991 7.792 146.655 8.88 146.943 10.272H143.703C143.543 9.696 143.223 9.248 142.743 8.928C142.279 8.592 141.727 8.424 141.087 8.424C140.239 8.424 139.519 8.744 138.927 9.384C138.335 10.024 138.039 10.912 138.039 12.048C138.039 13.184 138.335 14.072 138.927 14.712C139.519 15.352 140.239 15.672 141.087 15.672C141.727 15.672 142.279 15.512 142.743 15.192C143.223 14.872 143.543 14.416 143.703 13.824H146.943C146.655 15.168 145.991 16.248 144.951 17.064C143.911 17.88 142.631 18.288 141.111 18.288ZM155.381 18.288C154.229 18.288 153.189 18.024 152.261 17.496C151.349 16.968 150.621 16.24 150.077 15.312C149.549 14.368 149.285 13.28 149.285 12.048C149.285 10.816 149.557 9.736 150.101 8.808C150.645 7.864 151.373 7.128 152.285 6.6C153.213 6.072 154.253 5.808 155.405 5.808C156.541 5.808 157.565 6.072 158.477 6.6C159.405 7.128 160.133 7.864 160.661 8.808C161.205 9.736 161.477 10.816 161.477 12.048C161.477 13.28 161.205 14.368 160.661 15.312C160.133 16.24 159.405 16.968 158.477 17.496C157.549 18.024 156.517 18.288 155.381 18.288ZM155.381 15.624C156.181 15.624 156.877 15.328 157.469 14.736C158.061 14.128 158.357 13.232 158.357 12.048C158.357 10.864 158.061 9.976 157.469 9.384C156.877 8.776 156.189 8.472 155.405 8.472C154.589 8.472 153.885 8.776 153.293 9.384C152.717 9.976 152.429 10.864 152.429 12.048C152.429 13.232 152.717 14.128 153.293 14.736C153.885 15.328 154.581 15.624 155.381 15.624Z" fill="white"/>
</svg>
