<svg width="230" height="19" viewBox="0 0 230 19" fill="none" xmlns="http://www.w3.org/2000/svg">
<path d="M227.638 4.24797C227.078 4.24797 226.614 4.07997 226.246 3.74397C225.894 3.40797 225.718 2.98397 225.718 2.47197C225.718 1.95997 225.894 1.54397 226.246 1.22397C226.614 0.88797 227.078 0.719971 227.638 0.719971C228.198 0.719971 228.654 0.88797 229.006 1.22397C229.374 1.54397 229.558 1.95997 229.558 2.47197C229.558 2.98397 229.374 3.40797 229.006 3.74397C228.654 4.07997 228.198 4.24797 227.638 4.24797ZM226.102 18V6.09597H229.174V18H226.102Z" fill="white"/>
<path d="M213.73 17.9999V15.5279L219.801 8.63995H213.801V6.09595H223.305V8.56795L217.137 15.4559H223.426V17.9999H213.73Z" fill="white"/>
<path d="M202.245 17.9999V15.5279L208.317 8.63995H202.317V6.09595H211.821V8.56795L205.653 15.4559H211.941V17.9999H202.245Z" fill="white"/>
<path d="M192.876 18.2879C191.388 18.2879 190.236 17.8239 189.42 16.8959C188.62 15.9679 188.22 14.6079 188.22 12.8159V6.09595H191.268V12.5279C191.268 13.5519 191.476 14.3359 191.892 14.8799C192.308 15.4239 192.964 15.6959 193.86 15.6959C194.708 15.6959 195.404 15.3919 195.948 14.7839C196.508 14.1759 196.788 13.3279 196.788 12.2399V6.09595H199.86V17.9999H197.148L196.908 15.9839C196.54 16.6879 196.004 17.2479 195.3 17.6639C194.612 18.0799 193.804 18.2879 192.876 18.2879Z" fill="white"/>
<path d="M173.81 18.0001V6.09611H176.522L176.762 8.11211C177.13 7.40811 177.658 6.8481 178.346 6.43211C179.05 6.01611 179.874 5.80811 180.818 5.80811C182.29 5.80811 183.434 6.27211 184.25 7.20011C185.066 8.12811 185.474 9.48811 185.474 11.2801V18.0001H182.402V11.5681C182.402 10.5441 182.194 9.76011 181.778 9.21611C181.362 8.67211 180.714 8.40011 179.834 8.40011C178.97 8.40011 178.258 8.70411 177.698 9.31211C177.154 9.92011 176.882 10.7681 176.882 11.8561V18.0001H173.81Z" fill="white"/>
<path d="M159.208 18.0001V6.09611H161.92L162.16 8.11211C162.528 7.40811 163.056 6.8481 163.744 6.43211C164.448 6.01611 165.272 5.80811 166.216 5.80811C167.688 5.80811 168.832 6.27211 169.648 7.20011C170.464 8.12811 170.872 9.48811 170.872 11.2801V18.0001H167.8V11.5681C167.8 10.5441 167.592 9.76011 167.176 9.21611C166.76 8.67211 166.112 8.40011 165.232 8.40011C164.368 8.40011 163.656 8.70411 163.096 9.31211C162.552 9.92011 162.28 10.7681 162.28 11.8561V18.0001H159.208Z" fill="white"/>
<path d="M149.461 18.2881C148.437 18.2881 147.597 18.1281 146.941 17.8081C146.285 17.4721 145.797 17.0321 145.477 16.4881C145.157 15.9441 144.997 15.3441 144.997 14.6881C144.997 13.5841 145.429 12.6881 146.293 12.0001C147.157 11.3121 148.453 10.9681 150.181 10.9681H153.205V10.6801C153.205 9.86411 152.973 9.26411 152.509 8.88011C152.045 8.49611 151.469 8.30411 150.781 8.30411C150.157 8.30411 149.613 8.45611 149.149 8.76011C148.685 9.04811 148.397 9.48011 148.285 10.0561H145.285C145.365 9.19211 145.653 8.4401 146.149 7.80011C146.661 7.1601 147.317 6.67211 148.117 6.33611C148.917 5.98411 149.813 5.80811 150.805 5.80811C152.501 5.80811 153.837 6.23211 154.813 7.08011C155.789 7.92811 156.277 9.12811 156.277 10.6801V18.0001H153.661L153.373 16.0801C153.021 16.7201 152.525 17.2481 151.885 17.6641C151.261 18.0801 150.453 18.2881 149.461 18.2881ZM150.157 15.8881C151.037 15.8881 151.717 15.6001 152.197 15.0241C152.693 14.4481 153.005 13.7361 153.133 12.8881H150.517C149.701 12.8881 149.117 13.0401 148.765 13.3441C148.413 13.6321 148.237 13.9921 148.237 14.4241C148.237 14.8881 148.413 15.2481 148.765 15.5041C149.117 15.7601 149.581 15.8881 150.157 15.8881Z" fill="white"/>
<path d="M137.047 18.288C135.415 18.288 134.103 17.832 133.111 16.92C132.135 15.992 131.647 14.68 131.647 12.984H134.719C134.735 13.768 134.919 14.392 135.271 14.856C135.623 15.32 136.191 15.552 136.975 15.552C137.711 15.552 138.247 15.336 138.583 14.904C138.919 14.456 139.087 13.872 139.087 13.152V1.19995H142.159V13.152C142.159 14.8 141.695 16.072 140.767 16.968C139.855 17.848 138.615 18.288 137.047 18.288Z" fill="white"/>
<path d="M124.367 18.2881C123.231 18.2881 122.223 18.0321 121.343 17.5201C120.463 16.9921 119.767 16.2641 119.255 15.3361C118.759 14.4081 118.511 13.3121 118.511 12.0481C118.511 10.8001 118.759 9.71211 119.255 8.78411C119.751 7.84011 120.439 7.11211 121.319 6.60011C122.215 6.07211 123.247 5.80811 124.415 5.80811C125.567 5.80811 126.559 6.07211 127.391 6.60011C128.239 7.11211 128.887 7.79211 129.335 8.64011C129.783 9.48811 130.007 10.4001 130.007 11.3761C130.007 11.5521 129.999 11.7281 129.983 11.9041C129.983 12.0801 129.983 12.2801 129.983 12.5041H120.503C120.551 13.4161 120.759 14.1761 121.127 14.7841C121.511 15.3761 121.983 15.8241 122.543 16.1281C123.119 16.4321 123.727 16.5841 124.367 16.5841C125.199 16.5841 125.895 16.3921 126.455 16.0081C127.015 15.6241 127.423 15.1041 127.679 14.4481H129.671C129.351 15.5521 128.735 16.4721 127.823 17.2081C126.927 17.9281 125.775 18.2881 124.367 18.2881ZM124.367 7.51211C123.407 7.51211 122.551 7.80811 121.799 8.40011C121.063 8.97611 120.639 9.82411 120.527 10.9441H128.015C127.967 9.87211 127.599 9.03211 126.911 8.42411C126.223 7.81611 125.375 7.51211 124.367 7.51211Z" fill="white"/>
<path d="M114.766 18C113.678 18 112.822 17.736 112.198 17.208C111.574 16.68 111.262 15.728 111.262 14.352V7.79999H109.198V6.09599H111.262L111.526 3.23999H113.278V6.09599H116.782V7.79999H113.278V14.352C113.278 15.104 113.43 15.616 113.734 15.888C114.038 16.144 114.574 16.272 115.342 16.272H116.59V18H114.766Z" fill="white"/>
<path d="M96.3279 18.0001V6.09611H98.1519L98.2719 8.23211C98.6559 7.48011 99.2079 6.88811 99.9279 6.45611C100.648 6.02411 101.464 5.80811 102.376 5.80811C103.784 5.80811 104.904 6.24011 105.736 7.1041C106.584 7.95211 107.008 9.2641 107.008 11.0401V18.0001H104.992V11.2561C104.992 8.77611 103.968 7.53611 101.92 7.53611C100.896 7.53611 100.04 7.91211 99.3519 8.66411C98.6799 9.40011 98.3439 10.4561 98.3439 11.8321V18.0001H96.3279Z" fill="white"/>
<path d="M88.0158 18.2881C86.8798 18.2881 85.8718 18.0321 84.9918 17.5201C84.1118 16.9921 83.4158 16.2641 82.9038 15.3361C82.4078 14.4081 82.1598 13.3121 82.1598 12.0481C82.1598 10.8001 82.4078 9.71211 82.9038 8.78411C83.3998 7.84011 84.0878 7.11211 84.9678 6.60011C85.8638 6.07211 86.8958 5.80811 88.0638 5.80811C89.2158 5.80811 90.2078 6.07211 91.0398 6.60011C91.8878 7.11211 92.5358 7.79211 92.9838 8.64011C93.4318 9.48811 93.6558 10.4001 93.6558 11.3761C93.6558 11.5521 93.6478 11.7281 93.6318 11.9041C93.6318 12.0801 93.6318 12.2801 93.6318 12.5041H84.1518C84.1998 13.4161 84.4078 14.1761 84.7758 14.7841C85.1598 15.3761 85.6318 15.8241 86.1918 16.1281C86.7678 16.4321 87.3758 16.5841 88.0158 16.5841C88.8478 16.5841 89.5438 16.3921 90.1038 16.0081C90.6638 15.6241 91.0718 15.1041 91.3278 14.4481H93.3198C92.9998 15.5521 92.3838 16.4721 91.4718 17.2081C90.5758 17.9281 89.4238 18.2881 88.0158 18.2881ZM88.0158 7.51211C87.0558 7.51211 86.1998 7.80811 85.4478 8.40011C84.7118 8.97611 84.2878 9.82411 84.1758 10.9441H91.6638C91.6158 9.87211 91.2478 9.03211 90.5598 8.42411C89.8718 7.81611 89.0238 7.51211 88.0158 7.51211Z" fill="white"/>
<path d="M74.4483 18.2881C73.3123 18.2881 72.2883 18.0321 71.3763 17.5201C70.4803 16.9921 69.7683 16.2641 69.2403 15.3361C68.7283 14.3921 68.4723 13.2961 68.4723 12.0481C68.4723 10.8001 68.7283 9.71211 69.2403 8.78411C69.7683 7.84011 70.4803 7.11211 71.3763 6.60011C72.2883 6.07211 73.3123 5.80811 74.4483 5.80811C75.8563 5.80811 77.0403 6.17611 78.0003 6.91211C78.9763 7.64811 79.5923 8.63211 79.8483 9.86411H77.7843C77.6243 9.12811 77.2323 8.56011 76.6083 8.16011C75.9843 7.74411 75.2563 7.53611 74.4243 7.53611C73.7523 7.53611 73.1203 7.7041 72.5283 8.0401C71.9363 8.3761 71.4563 8.88011 71.0883 9.5521C70.7203 10.2241 70.5363 11.0561 70.5363 12.0481C70.5363 13.0401 70.7203 13.8721 71.0883 14.5441C71.4563 15.2161 71.9363 15.7281 72.5283 16.0801C73.1203 16.4161 73.7523 16.5841 74.4243 16.5841C75.2563 16.5841 75.9843 16.3841 76.6083 15.9841C77.2323 15.5681 77.6243 14.9841 77.7843 14.2321H79.8483C79.6083 15.4321 79.0003 16.4081 78.0243 17.1601C77.0483 17.9121 75.8563 18.2881 74.4483 18.2881Z" fill="white"/>
<path d="M64.4581 3.45597C64.0581 3.45597 63.7221 3.32797 63.4501 3.07197C63.1941 2.79997 63.0661 2.46397 63.0661 2.06397C63.0661 1.67997 63.1941 1.35997 63.4501 1.10397C63.7221 0.84797 64.0581 0.719971 64.4581 0.719971C64.8421 0.719971 65.1701 0.84797 65.4421 1.10397C65.7141 1.35997 65.8501 1.67997 65.8501 2.06397C65.8501 2.46397 65.7141 2.79997 65.4421 3.07197C65.1701 3.32797 64.8421 3.45597 64.4581 3.45597ZM63.4501 18V6.09597H65.4661V18H63.4501Z" fill="white"/>
<path d="M52.3869 18L46.0749 1.19995H48.2589L53.5629 15.864L58.9149 1.19995H61.0509L54.7389 18H52.3869Z" fill="white"/>
<path d="M36.8598 18.12C36.4598 18.12 36.1238 17.992 35.8518 17.736C35.5958 17.464 35.4678 17.136 35.4678 16.752C35.4678 16.368 35.5958 16.048 35.8518 15.792C36.1238 15.52 36.4598 15.384 36.8598 15.384C37.2438 15.384 37.5638 15.52 37.8198 15.792C38.0918 16.048 38.2278 16.368 38.2278 16.752C38.2278 17.136 38.0918 17.464 37.8198 17.736C37.5638 17.992 37.2438 18.12 36.8598 18.12Z" fill="white"/>
<path d="M22.7369 18V1.19995H33.1289V2.85595H24.7529V8.71195H32.4089V10.344H24.7529V16.344H33.1289V18H22.7369Z" fill="white"/>
<path d="M18.6254 18.12C18.2254 18.12 17.8894 17.992 17.6174 17.736C17.3614 17.464 17.2334 17.136 17.2334 16.752C17.2334 16.368 17.3614 16.048 17.6174 15.792C17.8894 15.52 18.2254 15.384 18.6254 15.384C19.0094 15.384 19.3294 15.52 19.5854 15.792C19.8574 16.048 19.9934 16.368 19.9934 16.752C19.9934 17.136 19.8574 17.464 19.5854 17.736C19.3294 17.992 19.0094 18.12 18.6254 18.12Z" fill="white"/>
<path d="M8.14399 18.2881C6.49599 18.2881 5.07199 17.9281 3.87199 17.2081C2.68799 16.4721 1.76799 15.4561 1.11199 14.1601C0.455991 12.8481 0.127991 11.3281 0.127991 9.60011C0.127991 7.88811 0.455991 6.38411 1.11199 5.08811C1.76799 3.77611 2.68799 2.75211 3.87199 2.01611C5.07199 1.28011 6.49599 0.912109 8.14399 0.912109C10.064 0.912109 11.624 1.37611 12.824 2.30411C14.04 3.21611 14.816 4.49611 15.152 6.14411H12.92C12.664 5.10411 12.136 4.27211 11.336 3.64811C10.552 3.00811 9.48799 2.68811 8.14399 2.68811C6.94399 2.68811 5.89599 2.96811 4.99999 3.52811C4.10399 4.07211 3.40799 4.86411 2.91199 5.90411C2.43199 6.92811 2.19199 8.16011 2.19199 9.60011C2.19199 11.0401 2.43199 12.2801 2.91199 13.3201C3.40799 14.3441 4.10399 15.1361 4.99999 15.6961C5.89599 16.2401 6.94399 16.5121 8.14399 16.5121C9.48799 16.5121 10.552 16.2081 11.336 15.6001C12.136 14.9761 12.664 14.1521 12.92 13.1281H15.152C14.816 14.7441 14.04 16.0081 12.824 16.9201C11.624 17.8321 10.064 18.2881 8.14399 18.2881Z" fill="white"/>
</svg>
